Coordinates
version=1
nRows=12
nColumns=24
inDegrees=yes

Units are S.I. units (second, meters, Newtons, ...)
Angles are in degrees.

endheader
time	pelvis_tilt	pelvis_list	pelvis_rotation	pelvis_tx	pelvis_ty	pelvis_tz	hip_flexion_r	hip_adduction_r	hip_rotation_r	knee_angle_r	ankle_angle_r	subtalar_angle_r	mtp_angle_r	hip_flexion_l	hip_adduction_l	hip_rotation_l	knee_angle_l	ankle_angle_l	subtalar_angle_l	mtp_angle_l	lumbar_extension	lumbar_bending	lumbar_rotation
      5.40000000	      1.73900549	      4.94499329	     -4.34788711	      1.75017800	      0.93326924	     -0.19591075	      4.79163007	     -9.48168892	     -1.96284593	    -63.72510144	    -13.89097202	     -9.83123600	      0.00000000	     19.35057474	      6.92650132	     -5.78264369	    -27.85418514	     11.63381879	    -14.94248909	      0.00000000	    -24.86579845	    -11.84137651	      0.26206177
      5.41000000	      1.80080047	      4.97620013	     -4.28728447	      1.76191944	      0.93566523	     -0.19720069	      6.75625049	     -9.53079554	     -1.72891573	    -65.39645101	    -12.52366048	    -10.94023642	      0.00000000	     18.11506189	      7.24882260	     -5.35830826	    -27.15341660	     11.99579287	    -15.11504436	      0.00000000	    -25.10419656	    -11.72452222	     -0.03231024
      5.42000000	      1.80121927	      4.86004972	     -4.23051576	      1.77354499	      0.93815839	     -0.19854780	      8.70437320	     -9.40768076	     -1.55108875	    -66.65532374	    -10.69424777	    -11.57790302	      0.00000000	     16.89276450	      7.42162652	     -4.88067192	    -26.35205135	     12.18567548	    -15.48285564	      0.00000000	    -25.26379140	    -11.39834077	     -0.26211515
      5.43000000	      1.81830190	      4.61269099	     -4.10866584	      1.78499031	      0.94079431	     -0.19984940	     10.53281018	     -9.12597416	     -1.52529973	    -67.49175397	     -8.75448338	    -11.99263062	      0.00000000	     15.62250055	      7.45418889	     -4.28816057	    -25.51043505	     12.37292230	    -15.73268988	      0.00000000	    -25.49015665	    -10.91287094	     -0.48522144
      5.44000000	      1.79900387	      4.36701675	     -3.92831533	      1.79642975	      0.94335510	     -0.20119912	     12.30887709	     -8.85446036	     -1.63165910	    -67.96497328	     -6.65530457	    -12.12173396	      0.00000000	     14.35294679	      7.48114119	     -3.70843920	    -24.57811319	     12.46275998	    -16.05351520	      0.00000000	    -25.66610759	    -10.38806120	     -0.81587406
      5.45000000	      1.76618599	      4.05983804	     -3.70958161	      1.80778077	      0.94583641	     -0.20248601	     14.00894482	     -8.50009977	     -1.82960799	    -68.08087995	     -4.57692708	    -12.03997672	      0.00000000	     13.07572325	      7.42354211	     -3.08794266	    -23.60473785	     12.56509104	    -16.32289677	      0.00000000	    -25.83661171	     -9.78441507	     -1.12579568
      5.46000000	      1.71785775	      3.80982604	     -3.44129417	      1.81913549	      0.94814195	     -0.20373436	     15.63853808	     -8.21302692	     -2.12676170	    -67.87631958	     -2.51171813	    -11.82188084	      0.00000000	     11.78904767	      7.41241299	     -2.40017571	    -22.56821217	     12.57248273	    -16.60809820	      0.00000000	    -25.97967342	     -9.24481882	     -1.45107455
      5.47000000	      1.64748427	      3.56509288	     -3.14360546	      1.83050438	      0.95023345	     -0.20488989	     17.19780359	     -7.92136603	     -2.48395181	    -67.35405921	     -0.53996121	    -11.48766308	      0.00000000	     10.51145921	      7.37262004	     -1.75103475	    -21.49825539	     12.59401793	    -16.84034200	      0.00000000	    -26.08155844	     -8.70689230	     -1.79773950
      5.48000000	      1.56244579	      3.35851869	     -2.82866212	      1.84191515	      0.95206862	     -0.20598140	     18.68502448	     -7.66864165	     -2.87891172	    -66.53580256	      1.30743731	    -11.07155986	      0.00000000	      9.22905770	      7.34793637	     -1.09825821	    -20.38122545	     12.61401840	    -17.07464128	      0.00000000	    -26.14416287	     -8.21043134	     -2.16234817
      5.49000000	      1.47941941	      3.21538646	     -2.47680479	      1.85335413	      0.95366642	     -0.20700730	     20.06965516	     -7.49060069	     -3.32299797	    -65.41796234	      3.04580580	    -10.61288188	      0.00000000	      7.93229419	      7.36639049	     -0.38654591	    -19.23572490	     12.57526620	    -17.30013271	      0.00000000	    -26.20319426	     -7.79505921	     -2.51922723
      5.50000000	      1.39487357	      3.08080319	     -2.12159980	      1.86484213	      0.95502028	     -0.20795782	     21.34924084	     -7.31472301	     -3.77451379	    -63.99261614	      4.60341323	    -10.10974330	      0.00000000	      6.62285653	      7.36254380	      0.30090431	    -18.06108393	     12.55855394	    -17.51716652	      0.00000000	    -26.24078345	     -7.39116657	     -2.88439288
      5.51000000	      1.26584769	      2.97484913	     -1.74476151	      1.87635995	      0.95604308	     -0.20883810	     22.56568540	     -7.17660965	     -4.25695603	    -62.27172168	      6.02923941	     -9.53648794	      0.00000000	      5.37601637	      7.34802062	      0.88506379	    -16.90879551	     12.61334749	    -17.60008343	      0.00000000	    -26.21502640	     -7.02426440	     -3.23660094
